<svg width="28" height="27" viewBox="0 0 28 27" fill="none" xmlns="http://www.w3.org/2000/svg">
<path d="M14.0804 12.2287C13.9679 12.2175 13.8329 12.2175 13.7091 12.2287C11.0316 12.1387 8.9054 9.945 8.9054 7.245C8.9054 4.48875 11.1329 2.25 13.9004 2.25C16.6566 2.25 18.8954 4.48875 18.8954 7.245C18.8841 9.945 16.7579 12.1387 14.0804 12.2287Z" stroke="white" stroke-width="2.5" stroke-linecap="round" stroke-linejoin="round"/>
<path d="M8.45557 16.38C5.73307 18.2025 5.73307 21.1725 8.45557 22.9837C11.5493 25.0537 16.6231 25.0537 19.7168 22.9837C22.4393 21.1612 22.4393 18.1913 19.7168 16.38C16.6343 14.3213 11.5606 14.3213 8.45557 16.38Z" stroke="white" stroke-width="2.5" stroke-linecap="round" stroke-linejoin="round"/>
</svg>
