<svg width="24" height="24" viewBox="0 0 24 24" fill="none" xmlns="http://www.w3.org/2000/svg">
<path d="M14.53 9.47L9.47 14.53C8.82 13.88 8.42 12.99 8.42 12C8.42 10.02 10.02 8.42 12 8.42C12.99 8.42 13.88 8.82 14.53 9.47Z" stroke="#292D32" stroke-width="1.5" stroke-linecap="round" stroke-linejoin="round"/>
<path d="M17.82 5.77C16.07 4.45 14.07 3.73 12 3.73C8.47 3.73 5.18 5.81 2.89 9.41C1.99 10.82 1.99 13.19 2.89 14.6C3.68 15.84 4.6 16.91 5.6 17.77" stroke="#292D32" stroke-width="1.5" stroke-linecap="round" stroke-linejoin="round"/>
<path d="M8.42 19.53C9.56 20.01 10.77 20.27 12 20.27C15.53 20.27 18.82 18.19 21.11 14.59C22.01 13.18 22.01 10.81 21.11 9.39999C20.78 8.87999 20.42 8.38999 20.05 7.92999" stroke="#292D32" stroke-width="1.5" stroke-linecap="round" stroke-linejoin="round"/>
<path d="M15.5104 12.7002C15.2504 14.1102 14.1004 15.2602 12.6904 15.5202" stroke="#292D32" stroke-width="1.5" stroke-linecap="round" stroke-linejoin="round"/>
<path d="M9.47 14.53L2 22" stroke="#292D32" stroke-width="1.5" stroke-linecap="round" stroke-linejoin="round"/>
<path d="M22.0003 2L14.5303 9.47" stroke="#292D32" stroke-width="1.5" stroke-linecap="round" stroke-linejoin="round"/>
</svg>
