<svg width="25" height="25" viewBox="0 0 25 25" fill="none" xmlns="http://www.w3.org/2000/svg">
<path d="M16.0418 12.606C15.9636 14.5844 14.3017 16.12 12.3232 16.0418C10.3448 15.9636 8.80921 14.3016 8.88741 12.3232C8.96562 10.3447 10.6276 8.80916 12.606 8.88737C14.5845 8.96557 16.12 10.6275 16.0418 12.606Z" stroke="#292D32" stroke-width="1.5" stroke-linecap="round" stroke-linejoin="round"/>
<path d="M12.1381 20.7281C15.6654 20.8675 19.0349 18.9191 21.4653 15.4124C22.4203 14.039 22.5139 11.6708 21.6703 10.2264C19.5243 6.53877 16.319 4.33045 12.7918 4.19103C9.26452 4.05161 5.89494 6.00005 3.46454 9.50679C2.50956 10.8801 2.41595 13.2483 3.25956 14.6927C5.40559 18.3804 8.61087 20.5887 12.1381 20.7281Z" stroke="#292D32" stroke-width="1.5" stroke-linecap="round" stroke-linejoin="round"/>
</svg>
